<svg width="30" height="25" fill="none" xmlns="http://www.w3.org/2000/svg"><path d="M29.01 8.327a2.035 2.035 0 0 0-1.601-.768h-5.671L18.663.518a.863.863 0 1 0-1.581.69l2.773 6.351H9.592l2.773-6.35a.863.863 0 0 0-1.581-.691L7.709 7.559H2.038c-.629 0-1.212.28-1.6.768a1.986 1.986 0 0 0-.387 1.69l3.028 13.227a2.021 2.021 0 0 0 1.987 1.57h19.315c.958 0 1.775-.646 1.987-1.57l3.028-13.228a1.986 1.986 0 0 0-.386-1.69Zm-4.63 14.76H5.067a.309.309 0 0 1-.305-.228L1.733 9.631a.263.263 0 0 1 .053-.229.313.313 0 0 1 .252-.117h4.917l-.226.517a.863.863 0 0 0 1.581.69l.528-1.207h11.77l.528 1.208a.863.863 0 1 0 1.582-.69l-.226-.518h4.917c.137 0 .216.073.251.117a.263.263 0 0 1 .054.23l-3.028 13.227a.309.309 0 0 1-.305.229Z" fill="#0F0F0F"/></svg>